<svg width="46" height="46" viewBox="0 0 46 46" fill="none" xmlns="http://www.w3.org/2000/svg">
<g clip-path="url(#clip0_275:228)">
<path d="M34.9788 16.0478C34.4862 16.2415 34.244 16.7978 34.4376 17.2904C35.2085 19.251 35.5995 21.3264 35.5995 23.4588C35.5995 32.7443 28.043 40.2986 18.7547 40.2986C9.47033 40.2986 1.91685 32.7442 1.91685 23.4588C1.91685 14.1748 9.47033 6.62174 18.7547 6.62174C23.439 6.62174 27.7898 8.49614 31.0056 11.8995C31.3692 12.2842 31.9757 12.3014 32.3603 11.9379C32.745 11.5744 32.7622 10.9679 32.3987 10.5831C30.6634 8.74655 28.6152 7.30129 26.3109 6.28728C23.9247 5.23743 21.3826 4.70508 18.7545 4.70508C8.41319 4.70508 0 13.1179 0 23.4588C0 33.8011 8.41319 42.2152 18.7545 42.2152C23.7663 42.2152 28.4778 40.2647 32.0209 36.7229C35.5645 33.1807 37.5161 28.4701 37.5161 23.4588C37.5161 21.0853 37.0804 18.774 36.2214 16.589C36.0276 16.0965 35.4716 15.8541 34.9788 16.0478Z" fill="#FAFAFA"/>
<path d="M27.9471 15.2154C28.312 14.832 28.2971 14.2254 27.9137 13.8605C25.4324 11.4983 22.1797 10.1973 18.7546 10.1973C11.446 10.1973 5.5 16.1462 5.5 23.4584C5.5 30.771 11.446 36.7202 18.7546 36.7202C26.0712 36.7202 32.0236 30.771 32.0236 23.4584C32.0236 22.0908 31.8152 20.7442 31.404 19.4558C31.2431 18.9516 30.7038 18.6734 30.1996 18.8341C29.6954 18.995 29.4172 19.5343 29.578 20.0385C29.929 21.1383 30.107 22.2889 30.107 23.4584C30.107 29.7141 25.0143 34.8036 18.7546 34.8036C12.5028 34.8036 7.41666 29.7142 7.41666 23.4584C7.41666 17.2031 12.5028 12.1139 18.7546 12.1139C21.6854 12.1139 24.4688 13.2272 26.5922 15.2486C26.9755 15.6137 27.5822 15.5987 27.9471 15.2154Z" fill="#FAFAFA"/>
<path d="M18.7549 17.2798C19.9145 17.2798 21.0417 17.6004 22.0165 18.2078C22.1704 18.3033 22.3163 18.404 22.4502 18.5071C22.8695 18.8299 23.4712 18.7518 23.7941 18.3326C24.1171 17.9132 24.0389 17.3115 23.6196 16.9886C23.4348 16.8463 23.2352 16.7085 23.0284 16.5802C21.751 15.7841 20.2732 15.3633 18.7548 15.3633C14.2952 15.3633 10.667 18.9948 10.667 23.4585C10.667 27.9237 14.2951 31.5565 18.7548 31.5565C23.2217 31.5565 26.8558 27.9237 26.8558 23.4585C26.8558 23.094 26.8315 22.7375 26.7813 22.3686C26.71 21.8442 26.227 21.4772 25.7025 21.5482C25.1781 21.6196 24.8107 22.1025 24.882 22.627C24.9205 22.9094 24.9391 23.1813 24.9391 23.4585C24.9391 26.8669 22.1649 29.6398 18.7548 29.6398C15.3521 29.6398 12.5837 26.8669 12.5837 23.4585C12.5838 20.0515 15.3522 17.2798 18.7549 17.2798Z" fill="#FAFAFA"/>
<path d="M45.5334 11.4682L41.622 9.12931L41.1535 4.64393C41.119 4.31283 40.9151 4.02351 40.615 3.87947C40.3151 3.73553 39.9617 3.75748 39.6818 3.93755L35.9172 6.36021C35.6471 6.53405 35.4819 6.8318 35.4776 7.15304L35.4102 12.131L20.2311 21.3498C19.7947 21.034 19.2595 20.8471 18.6812 20.8471C17.2146 20.8471 16.0215 22.0395 16.0215 23.505C16.0215 24.9706 17.2147 26.163 18.6812 26.163C20.144 26.163 21.3341 24.9706 21.3341 23.505C21.3341 23.3172 21.3143 23.134 21.2771 22.9571L36.5198 13.6996L40.8876 15.5885C41.0095 15.6413 41.139 15.6672 41.268 15.6672C41.4487 15.6672 41.6285 15.6161 41.7851 15.5157L45.5587 13.0974C45.8381 12.9184 46.005 12.6075 45.9999 12.2757C45.9946 11.944 45.8182 11.6385 45.5334 11.4682ZM41.1803 13.6269L37.3292 11.9616L37.3871 7.69363L39.4091 6.39241L39.7655 9.80522C39.7968 10.1054 39.9678 10.3733 40.2268 10.5282L43.2214 12.3188L41.1803 13.6269Z" fill="#FAFAFA"/>
</g>
<defs>
<clipPath id="clip0_275:228">
<rect width="46" height="46" fill="white"/>
</clipPath>
</defs>
</svg>
